<svg version="1.1" viewBox="0.0 0.0 348.0472440944882 251.66929133858267" fill="none" stroke="none" stroke-linecap="square" stroke-miterlimit="10" xmlns:xlink="http://www.w3.org/1999/xlink" xmlns="http://www.w3.org/2000/svg"><clipPath id="p.0"><path d="m0 0l348.04724 0l0 251.6693l-348.04724 0l0 -251.6693z" clip-rule="nonzero"/></clipPath><g clip-path="url(#p.0)"><path fill="#000000" fill-opacity="0.0" d="m0 0l348.04724 0l0 251.6693l-348.04724 0z" fill-rule="evenodd"/><path fill="#000000" fill-opacity="0.0" d="m67.049866 128.13649l0 0c0 -59.64676 48.35325 -108.00001 108.0 -108.00001l0 0c28.643387 0 56.1136 11.37854 76.36754 31.63247c20.253922 20.25393 31.632462 47.72415 31.632462 76.36754l0 0c0 59.646744 -48.35324 108.0 -108.0 108.0l0 0c-59.64675 0 -108.0 -48.353256 -108.0 -108.0z" fill-rule="evenodd"/><path stroke="#000000" stroke-width="1.0" stroke-linejoin="round" stroke-linecap="butt" stroke-dasharray="4.0,3.0" d="m67.049866 128.13649l0 0c0 -59.64676 48.35325 -108.00001 108.0 -108.00001l0 0c28.643387 0 56.1136 11.37854 76.36754 31.63247c20.253922 20.25393 31.632462 47.72415 31.632462 76.36754l0 0c0 59.646744 -48.35324 108.0 -108.0 108.0l0 0c-59.64675 0 -108.0 -48.353256 -108.0 -108.0z" fill-rule="evenodd"/><path fill="#000000" fill-opacity="0.0" d="m67.049866 128.13649l216.0 0" fill-rule="evenodd"/><path stroke="#000000" stroke-width="1.0" stroke-linejoin="round" stroke-linecap="butt" d="m67.049866 128.13649l216.0 0" fill-rule="evenodd"/><path fill="#000000" fill-opacity="0.0" d="m175.04987 20.136482l0 216.0" fill-rule="evenodd"/><path stroke="#000000" stroke-width="1.0" stroke-linejoin="round" stroke-linecap="butt" d="m175.04987 20.136482l0 216.0" fill-rule="evenodd"/><path fill="#000000" fill-opacity="0.0" d="m67.05074 128.12271l55.227905 -93.5429l105.54418 0.030780792l55.22792 93.57512l-55.22792 93.54291l-105.54418 -0.030792236z" fill-rule="evenodd"/><path stroke="#e06666" stroke-width="1.0" stroke-linejoin="round" stroke-linecap="butt" d="m67.05074 128.12271l55.227905 -93.5429l105.54418 0.030780792l55.22792 93.57512l-55.22792 93.54291l-105.54418 -0.030792236z" fill-rule="evenodd"/><path fill="#000000" fill-opacity="0.0" d="m122.27865 221.69783l105.54331 -187.08661" fill-rule="evenodd"/><path stroke="#4a86e8" stroke-width="1.0" stroke-linejoin="round" stroke-linecap="butt" stroke-dasharray="4.0,3.0" d="m122.27865 221.69783l105.54331 -187.08661" fill-rule="evenodd"/><path fill="#000000" fill-opacity="0.0" d="m122.27865 34.57981l105.54331 187.1496" fill-rule="evenodd"/><path stroke="#4a86e8" stroke-width="1.0" stroke-linejoin="round" stroke-linecap="butt" stroke-dasharray="4.0,3.0" d="m122.27865 34.57981l105.54331 187.1496" fill-rule="evenodd"/><path fill="#000000" fill-opacity="0.0" d="m187.4156 107.135765l0 0c8.45903 3.6897583 13.880798 12.0971985 13.755508 21.330406l-22.91127 -0.3113098z" fill-rule="evenodd"/><path fill="#000000" fill-opacity="0.0" d="m187.4156 107.135765l0 0c8.45903 3.6897583 13.880798 12.0971985 13.755508 21.330406" fill-rule="evenodd"/><path stroke="#4a86e8" stroke-width="1.0" stroke-linejoin="round" stroke-linecap="butt" d="m187.4156 107.135765l0 0c8.45903 3.6897583 13.880798 12.0971985 13.755508 21.330406" fill-rule="evenodd"/><path fill="#000000" fill-opacity="0.0" d="m191.49606 100.64304l45.826767 0l0 30.803154l-45.826767 0z" fill-rule="evenodd"/><path fill="#4a86e8" d="m205.90231 114.11742l-1.421875 0.15625q-0.046875 -0.4375 -0.265625 -0.640625q-0.21875 -0.203125 -0.5625 -0.203125q-0.46875 0 -0.796875 0.421875q-0.3125 0.40625 -0.390625 1.71875q0.546875 -0.640625 1.359375 -0.640625q0.90625 0 1.5625 0.703125q0.65625 0.6875 0.65625 1.796875q0 1.171875 -0.6875 1.875q-0.6875 0.703125 -1.765625 0.703125q-1.15625 0 -1.90625 -0.890625q-0.734375 -0.90625 -0.734375 -2.9375q0 -2.109375 0.765625 -3.03125q0.78125 -0.921875 2.015625 -0.921875q0.875 0 1.4375 0.484375q0.578125 0.484375 0.734375 1.40625zm-3.3125 3.1875q0 0.71875 0.328125 1.109375q0.328125 0.390625 0.75 0.390625q0.40625 0 0.671875 -0.3125q0.265625 -0.328125 0.265625 -1.046875q0 -0.75 -0.296875 -1.09375q-0.28125 -0.34375 -0.71875 -0.34375q-0.421875 0 -0.71875 0.328125q-0.28125 0.328125 -0.28125 0.96875zm6.7546234 -5.078125q1.109375 0 1.734375 0.78125q0.75 0.9375 0.75 3.109375q0 2.171875 -0.75 3.109375q-0.625 0.78125 -1.734375 0.78125q-1.109375 0 -1.796875 -0.84375q-0.671875 -0.859375 -0.671875 -3.0625q0 -2.15625 0.75 -3.09375q0.609375 -0.78125 1.71875 -0.78125zm0 1.203125q-0.265625 0 -0.46875 0.171875q-0.203125 0.171875 -0.328125 0.609375q-0.140625 0.5625 -0.140625 1.90625q0 1.34375 0.125 1.84375q0.140625 0.5 0.34375 0.671875q0.203125 0.171875 0.46875 0.171875q0.265625 0 0.46875 -0.171875q0.21875 -0.171875 0.328125 -0.609375q0.15625 -0.5625 0.15625 -1.90625q0 -1.34375 -0.140625 -1.84375q-0.140625 -0.5 -0.34375 -0.671875q-0.203125 -0.171875 -0.46875 -0.171875zm3.1452484 0.65625q0 -0.9375 0.484375 -1.453125q0.5 -0.515625 1.3125 -0.515625q0.8125 0 1.3125 0.53125q0.5 0.515625 0.5 1.4375q0 0.921875 -0.5 1.4375q-0.484375 0.515625 -1.3125 0.515625q-0.8125 0 -1.3125 -0.515625q-0.484375 -0.515625 -0.484375 -1.4375zm1.09375 0q0 0.578125 0.1875 0.828125q0.203125 0.234375 0.5 0.234375q0.3125 0 0.5 -0.234375q0.203125 -0.25 0.203125 -0.828125q0 -0.5625 -0.203125 -0.796875q-0.1875 -0.25 -0.5 -0.25q-0.296875 0 -0.5 0.234375q-0.1875 0.234375 -0.1875 0.8125z" fill-rule="nonzero"/><path fill="#000000" fill-opacity="0.0" d="m115.81365 105.22572l32.125984 0l0 30.803146l-32.125984 0z" fill-rule="evenodd"/><path fill="#000000" d="m126.98553 124.46572l-1.46875 0l0 -5.53125l1.359375 0l0 0.796875q0.34375 -0.5625 0.625 -0.734375q0.28125 -0.1875 0.6249924 -0.1875q0.5 0 0.96875 0.28125l-0.453125 1.28125q-0.375 -0.25 -0.6874924 -0.25q-0.3125 0 -0.53125 0.171875q-0.203125 0.171875 -0.328125 0.625q-0.109375 0.4375 -0.109375 1.84375l0 1.703125z" fill-rule="nonzero"/><path fill="#000000" fill-opacity="0.0" d="m179.02887 119.14698l54.645676 0l0 18.047249l-54.645676 0z" fill-rule="evenodd"/><path fill="#000000" d="m189.65387 135.82698l-1.09375 0l0 -4.15625l1.015625 0l0 0.59375q0.265625 -0.421875 0.46875 -0.546875q0.21875 -0.140625 0.484375 -0.140625q0.375 0 0.71875 0.21875l-0.34375 0.953125q-0.28125 -0.1875 -0.515625 -0.1875q-0.234375 0 -0.390625 0.140625q-0.15625 0.125 -0.25 0.453125q-0.09375 0.328125 -0.09375 1.390625l0 1.28125zm7.8984375 -2.921875l-1.078125 0.1875q-0.046875 -0.3125 -0.25 -0.46875q-0.1875 -0.171875 -0.5 -0.171875q-0.40625 0 -0.65625 0.28125q-0.234375 0.28125 -0.234375 0.9375q0 0.75 0.234375 1.0625q0.25 0.296875 0.671875 0.296875q0.3125 0 0.515625 -0.171875q0.203125 -0.1875 0.28125 -0.625l1.078125 0.1875q-0.171875 0.734375 -0.65625 1.125q-0.46875 0.375 -1.265625 0.375q-0.90625 0 -1.453125 -0.578125q-0.546875 -0.578125 -0.546875 -1.59375q0 -1.015625 0.546875 -1.59375q0.546875 -0.578125 1.46875 -0.578125q0.765625 0 1.203125 0.328125q0.453125 0.328125 0.640625 1.0zm0.58984375 0.78125q0 -0.546875 0.265625 -1.046875q0.265625 -0.515625 0.75 -0.78125q0.5 -0.28125 1.109375 -0.28125q0.953125 0 1.546875 0.625q0.609375 0.609375 0.609375 1.53125q0 0.953125 -0.609375 1.578125q-0.609375 0.609375 -1.53125 0.609375q-0.578125 0 -1.09375 -0.25q-0.515625 -0.265625 -0.78125 -0.765625q-0.265625 -0.5 -0.265625 -1.21875zm1.125 0.0625q0 0.625 0.28125 0.953125q0.296875 0.328125 0.734375 0.328125q0.421875 0 0.703125 -0.328125q0.296875 -0.328125 0.296875 -0.953125q0 -0.609375 -0.296875 -0.9375q-0.28125 -0.328125 -0.703125 -0.328125q-0.4375 0 -0.734375 0.328125q-0.28125 0.328125 -0.28125 0.9375zm3.6210938 0.890625l1.109375 -0.171875q0.0625 0.328125 0.28125 0.5q0.21875 0.15625 0.59375 0.15625q0.4375 0 0.640625 -0.15625q0.15625 -0.109375 0.15625 -0.296875q0 -0.125 -0.078125 -0.203125q-0.09375 -0.078125 -0.375 -0.140625q-1.328125 -0.296875 -1.6875 -0.53125q-0.484375 -0.34375 -0.484375 -0.9375q0 -0.546875 0.421875 -0.90625q0.421875 -0.375 1.328125 -0.375q0.84375 0 1.25 0.28125q0.421875 0.28125 0.578125 0.828125l-1.03125 0.1875q-0.0625 -0.25 -0.25 -0.375q-0.1875 -0.125 -0.53125 -0.125q-0.4375 0 -0.625 0.125q-0.125 0.078125 -0.125 0.21875q0 0.109375 0.109375 0.203125q0.15625 0.109375 1.03125 0.3125q0.875 0.1875 1.21875 0.484375q0.34375 0.28125 0.34375 0.8125q0 0.5625 -0.484375 0.984375q-0.46875 0.40625 -1.40625 0.40625q-0.84375 0 -1.34375 -0.34375q-0.484375 -0.34375 -0.640625 -0.9375zm10.546875 -3.140625l-1.0625 0.125q-0.046875 -0.328125 -0.21875 -0.484375q-0.15625 -0.15625 -0.40625 -0.15625q-0.359375 0 -0.59375 0.3125q-0.234375 0.3125 -0.296875 1.296875q0.40625 -0.484375 1.015625 -0.484375q0.6875 0 1.171875 0.53125q0.5 0.515625 0.5 1.34375q0 0.875 -0.515625 1.40625q-0.515625 0.53125 -1.328125 0.53125q-0.875 0 -1.4375 -0.671875q-0.546875 -0.671875 -0.546875 -2.203125q0 -1.578125 0.578125 -2.265625q0.578125 -0.703125 1.515625 -0.703125q0.65625 0 1.078125 0.375q0.421875 0.359375 0.546875 1.046875zm-2.484375 2.390625q0 0.546875 0.234375 0.84375q0.25 0.28125 0.5625 0.28125q0.3125 0 0.515625 -0.234375q0.203125 -0.25 0.203125 -0.78125q0 -0.5625 -0.21875 -0.8125q-0.21875 -0.265625 -0.546875 -0.265625q-0.3125 0 -0.53125 0.25q-0.21875 0.234375 -0.21875 0.71875zm5.0742188 -3.8125q0.828125 0 1.296875 0.59375q0.5625 0.703125 0.5625 2.328125q0 1.625 -0.5625 2.34375q-0.46875 0.578125 -1.296875 0.578125q-0.84375 0 -1.359375 -0.640625q-0.5 -0.640625 -0.5 -2.296875q0 -1.609375 0.5625 -2.328125q0.453125 -0.578125 1.296875 -0.578125zm0 0.90625q-0.203125 0 -0.359375 0.125q-0.15625 0.125 -0.25 0.453125q-0.109375 0.4375 -0.109375 1.4375q0 1.015625 0.09375 1.390625q0.109375 0.375 0.265625 0.5q0.15625 0.125 0.359375 0.125q0.1875 0 0.34375 -0.125q0.15625 -0.125 0.25 -0.453125q0.109375 -0.421875 0.109375 -1.4375q0 -1.0 -0.109375 -1.375q-0.09375 -0.390625 -0.25 -0.515625q-0.15625 -0.125 -0.34375 -0.125zm2.3554688 0.484375q0 -0.6875 0.359375 -1.078125q0.375 -0.390625 0.984375 -0.390625q0.625 0 0.984375 0.390625q0.375 0.390625 0.375 1.078125q0 0.6875 -0.375 1.078125q-0.359375 0.390625 -0.984375 0.390625q-0.609375 0 -0.984375 -0.375q-0.359375 -0.390625 -0.359375 -1.09375zm0.8125 0.015625q0 0.421875 0.140625 0.609375q0.15625 0.171875 0.390625 0.171875q0.21875 0 0.359375 -0.171875q0.15625 -0.1875 0.15625 -0.609375q0 -0.4375 -0.15625 -0.609375q-0.140625 -0.1875 -0.359375 -0.1875q-0.234375 0 -0.390625 0.1875q-0.140625 0.171875 -0.140625 0.609375z" fill-rule="nonzero"/><path fill="#000000" fill-opacity="0.0" d="m247.69292 68.532555l-0.03149414 50.614174l-30.803162 0l0.0315094 -50.614174z" fill-rule="evenodd"/><path fill="#000000" d="m231.0063 79.157555l6.713867E-4 -1.09375l4.15625 0l-6.2561035E-4 1.015625l-0.59375 0q0.42170715 0.265625 0.5465851 0.46875q0.14048767 0.21875 0.14031982 0.484375q-2.2888184E-4 0.375 -0.2191925 0.71875l-0.9529114 -0.34375q0.18766785 -0.28125 0.18782043 -0.515625q1.373291E-4 -0.234375 -0.14038086 -0.390625q-0.12490845 -0.15625 -0.4529724 -0.25q-0.32806396 -0.09375 -1.390564 -0.09375l-1.28125 0zm1.1850739 3.8984375l0.17118835 1.109375q-0.32817078 0.0625 -0.5001831 0.28125q-0.15638733 0.21875 -0.15661621 0.59375q-2.746582E-4 0.4375 0.15585327 0.640625q0.10926819 0.15625 0.2967682 0.15625q0.125 0 0.20318604 -0.078125q0.07817078 -0.09375 0.14085388 -0.375q0.29769897 -1.328125 0.53230286 -1.6875q0.34403992 -0.484375 0.9377899 -0.484375q0.546875 0 0.9059906 0.421875q0.3747406 0.421875 0.37417603 1.328125q-5.187988E-4 0.84375 -0.2820282 1.25q-0.2815094 0.421875 -0.82847595 0.578125l-0.18685913 -1.03125q0.25003052 -0.0625 0.3751526 -0.25q0.12510681 -0.1875 0.12532043 -0.53125q2.746582E-4 -0.4375 -0.12460327 -0.625q-0.078048706 -0.125 -0.2186737 -0.125q-0.109375 0 -0.20318604 0.109375q-0.10948181 0.15625 -0.31314087 1.03125q-0.18804932 0.875 -0.48513794 1.21875q-0.28146362 0.34375 -0.8127136 0.34375q-0.5625 0 -0.9840698 -0.484375q-0.40596008 -0.46875 -0.40538025 -1.40625q5.187988E-4 -0.84375 0.34458923 -1.34375q0.34403992 -0.484375 0.9378967 -0.640625zm3.5282288 4.8398438l1.015625 0l-6.713867E-4 1.09375l-1.015625 0l6.713867E-4 -1.09375zm-4.71875 0l4.15625 0l-6.713867E-4 1.09375l-4.15625 0l6.713867E-4 -1.09375zm-0.0037231445 5.9882812l6.866455E-4 -1.09375l2.125 0q0.671875 0 0.8594208 -0.078125q0.20317078 -0.0625 0.31263733 -0.21875q0.10946655 -0.15625 0.10960388 -0.375q1.8310547E-4 -0.296875 -0.1559143 -0.53125q-0.15611267 -0.21875 -0.4216919 -0.296875q-0.24995422 -0.078125 -0.9530792 -0.078125l-1.875 0l6.866455E-4 -1.109375l4.15625 0l-6.4086914E-4 1.03125l-0.609375 0q0.70280457 0.53125 0.70228577 1.359375q-2.2888184E-4 0.359375 -0.14103699 0.65625q-0.12519836 0.3125 -0.32841492 0.46875q-0.20321655 0.15625 -0.46887207 0.203125q-0.25004578 0.0625 -0.7344208 0.0625l-2.578125 0zm4.323883 6.828125l-0.12434387 -1.0625q0.32815552 -0.046875 0.48451233 -0.21875q0.15634155 -0.15625 0.1565094 -0.40625q2.1362305E-4 -0.359375 -0.3121338 -0.59375q-0.31236267 -0.234375 -1.2966919 -0.296875q0.4841156 0.40625 0.4837494 1.015625q-4.4250488E-4 0.6875 -0.5319824 1.171875q-0.51594543 0.5 -1.3440704 0.5q-0.875 0 -1.4059296 -0.515625q-0.53092957 -0.515625 -0.530426 -1.328125q5.493164E-4 -0.875 0.67277527 -1.4375q0.6722107 -0.546875 2.2034607 -0.546875q1.578125 0 2.265274 0.578125q0.7027588 0.578125 0.70217896 1.515625q-4.119873E-4 0.65625 -0.3756714 1.078125q-0.3596344 0.421875 -1.0472107 0.546875zm-2.3890839 -2.484375q-0.546875 0 -0.8438873 0.234375q-0.28141785 0.25 -0.28160095 0.5625q-1.9836426E-4 0.3125 0.23405457 0.515625q0.24986267 0.203125 0.7811127 0.203125q0.5625 0 0.8126373 -0.21875q0.26576233 -0.21875 0.26597595 -0.546875q1.8310547E-4 -0.3125 -0.24967957 -0.53125q-0.23423767 -0.21875 -0.7186127 -0.21875zm3.8093414 5.0742188q-5.187988E-4 0.828125 -0.5945587 1.296875q-0.70347595 0.5625 -2.328476 0.5625q-1.625 0 -2.343399 -0.5625q-0.5778351 -0.46875 -0.5773163 -1.296875q5.340576E-4 -0.84375 0.6414795 -1.359375q0.6409302 -0.5 2.2971802 -0.5q1.609375 0 2.327774 0.5625q0.57785034 0.453125 0.5773163 1.296875zm-0.90625 0q1.2207031E-4 -0.203125 -0.12477112 -0.359375q-0.12490845 -0.15625 -0.4529724 -0.25q-0.43743896 -0.109375 -1.437439 -0.109375q-1.015625 0 -1.3906708 0.09375q-0.3750763 0.109375 -0.50016785 0.265625q-0.12510681 0.15625 -0.12522888 0.359375q-1.2207031E-4 0.1875 0.12478638 0.34375q0.12490845 0.15625 0.4529724 0.25q0.4217987 0.109375 1.4374237 0.109375q1.0 0 1.3750763 -0.109375q0.39068604 -0.09375 0.5157776 -0.25q0.12510681 -0.15625 0.12521362 -0.34375zm-0.48583984 2.3554688q0.6875 0 1.0778961 0.35936737q0.39039612 0.375 0.39001465 0.984375q-3.8146973E-4 0.625 -0.39123535 0.984375q-0.39085388 0.375 -1.0783539 0.375q-0.6875 0 -1.0778961 -0.375q-0.39039612 -0.359375 -0.39001465 -0.984375q3.8146973E-4 -0.609375 0.37561035 -0.984375q0.39085388 -0.35936737 1.0939789 -0.35936737zm-0.01612854 0.8124924q-0.421875 0 -0.60946655 0.140625q-0.17196655 0.15625 -0.17211914 0.390625q-1.373291E-4 0.21875 0.17166138 0.359375q0.18739319 0.15625 0.6092682 0.15625q0.4375 0 0.6094818 -0.15625q0.1875763 -0.140625 0.18771362 -0.359375q1.5258789E-4 -0.234375 -0.18725586 -0.390625q-0.17178345 -0.140625 -0.60928345 -0.140625z" fill-rule="nonzero"/><path fill="#000000" fill-opacity="0.0" d="m227.82283 34.610504l0 187.11812" fill-rule="evenodd"/><path stroke="#9900ff" stroke-width="1.0" stroke-linejoin="round" stroke-linecap="butt" stroke-dasharray="1.0,3.0" d="m227.82283 34.610504l0 187.11812" fill-rule="evenodd"/><path fill="#000000" fill-opacity="0.0" d="m140.67192 119.14698l40.72441 0l0 24.377953l-40.72441 0z" fill-rule="evenodd"/><path fill="#000000" d="m150.9688 137.51448q-0.625 -1.34375 -0.625 -2.765625q0 -0.953125 0.25 -1.765625q0.25 -0.8125 0.765625 -1.609375q0.328125 -0.53125 1.0625 -1.375l0.5625 0q-0.46875 0.484375 -0.984375 1.375q-0.5 0.890625 -0.734375 1.75q-0.21875 0.84375 -0.21875 1.71875q0 1.28125 0.4375 2.671875l-0.515625 0zm1.9296875 -3.5625q0 -0.734375 0.21875 -1.484375q0.21875 -0.75 0.484375 -1.1875q0.265625 -0.453125 0.546875 -0.703125q0.296875 -0.265625 0.5625 -0.375q0.28125 -0.125 0.609375 -0.125q0.65625 0 1.09375 0.484375q0.453125 0.484375 0.453125 1.40625q0 0.953125 -0.3125 1.890625q-0.359375 1.09375 -1.0 1.640625q-0.484375 0.421875 -1.125 0.421875q-0.640625 0 -1.09375 -0.5q-0.4375 -0.515625 -0.4375 -1.46875zm0.6875 0.171875q0 0.53125 0.171875 0.828125q0.25 0.40625 0.71875 0.40625q0.40625 0 0.734375 -0.375q0.484375 -0.515625 0.734375 -1.515625q0.25 -1.015625 0.25 -1.65625q0 -0.625 -0.25 -0.890625q-0.234375 -0.28125 -0.609375 -0.28125q-0.28125 0 -0.53125 0.15625q-0.25 0.140625 -0.46875 0.484375q-0.3125 0.5 -0.546875 1.484375q-0.203125 0.84375 -0.203125 1.359375zm3.6367188 1.703125l0.171875 -0.796875l0.796875 0l-0.140625 0.6875q-0.140625 0.640625 -0.421875 0.921875q-0.265625 0.296875 -0.65625 0.34375l0.078125 -0.3125q0.453125 -0.125 0.609375 -0.84375l-0.4375 0zm4.5703125 -1.875q0 -0.734375 0.21875 -1.484375q0.21875 -0.75 0.484375 -1.1875q0.265625 -0.453125 0.546875 -0.703125q0.296875 -0.265625 0.5625 -0.375q0.28125 -0.125 0.609375 -0.125q0.65625 0 1.09375 0.484375q0.453125 0.484375 0.453125 1.40625q0 0.953125 -0.3125 1.890625q-0.359375 1.09375 -1.0 1.640625q-0.484375 0.421875 -1.125 0.421875q-0.640625 0 -1.09375 -0.5q-0.4375 -0.515625 -0.4375 -1.46875zm0.6875 0.171875q0 0.53125 0.171875 0.828125q0.25 0.40625 0.71875 0.40625q0.40625 0 0.734375 -0.375q0.484375 -0.515625 0.734375 -1.515625q0.25 -1.015625 0.25 -1.65625q0 -0.625 -0.25 -0.890625q-0.234375 -0.28125 -0.609375 -0.28125q-0.28125 0 -0.53125 0.15625q-0.25 0.140625 -0.46875 0.484375q-0.3125 0.5 -0.546875 1.484375q-0.203125 0.84375 -0.203125 1.359375zm4.7929688 -4.125q0.609375 1.34375 0.609375 2.765625q0 0.9375 -0.25 1.75q-0.25 0.8125 -0.75 1.625q-0.34375 0.53125 -1.078125 1.375l-0.546875 0q0.453125 -0.5 0.953125 -1.390625q0.515625 -0.875 0.75 -1.734375q0.234375 -0.859375 0.234375 -1.71875q0 -1.296875 -0.453125 -2.671875l0.53125 0z" fill-rule="nonzero"/><path fill="#000000" fill-opacity="0.0" d="m222.54855 15.606299l97.63779 0l0 24.377953l-97.63779 0z" fill-rule="evenodd"/><path fill="#000000" d="m232.84543 33.9738q-0.625 -1.34375 -0.625 -2.765627q0 -0.953125 0.25 -1.765625q0.25 -0.8125 0.765625 -1.609375q0.328125 -0.53125 1.0625 -1.375l0.5625 0q-0.46875 0.484375 -0.984375 1.375q-0.5 0.890625 -0.734375 1.75q-0.21875 0.84375 -0.21875 1.71875q0 1.2812519 0.4375 2.671877l-0.515625 0zm1.6328125 -1.6875l0.875 -4.156252l0.625 0l-0.1875 0.859375q0.328125 -0.484375 0.625 -0.71875q0.3125 -0.234375 0.640625 -0.234375q0.203125 0 0.515625 0.15625l-0.296875 0.65625q-0.171875 -0.125 -0.390625 -0.125q-0.375 0 -0.765625 0.421875q-0.390625 0.40625 -0.609375 1.46875l-0.359375 1.6718769l-0.671875 0zm5.5234375 -1.5156269l0.71875 0.078125q-0.265625 0.78125 -0.765625 1.1562519q-0.484375 0.375 -1.109375 0.375q-0.671875 0 -1.09375 -0.4375019q-0.421875 -0.4375 -0.421875 -1.21875q0 -0.6875 0.265625 -1.34375q0.265625 -0.65625 0.765625 -1.0q0.515625 -0.34375 1.15625 -0.34375q0.671875 0 1.0625 0.390625q0.390625 0.375 0.390625 0.984375l-0.703125 0.046875q0 -0.390625 -0.234375 -0.609375q-0.21875 -0.21875 -0.578125 -0.21875q-0.4375 0 -0.75 0.265625q-0.3125 0.265625 -0.484375 0.8125q-0.171875 0.546875 -0.171875 1.0625q0 0.53125 0.234375 0.796875q0.234375 0.265625 0.578125 0.265625q0.34375 0 0.65625 -0.265625q0.3125 -0.265625 0.484375 -0.796875zm1.265625 -0.0625q0 -1.21875 0.71875 -2.015625q0.59375 -0.65625 1.546875 -0.65625q0.75 0 1.203125 0.46875q0.46875 0.46875 0.46875 1.265625q0 0.71875 -0.296875 1.34375q-0.28125 0.609375 -0.828125 0.9375019q-0.53125 0.328125 -1.109375 0.328125q-0.484375 0 -0.890625 -0.203125q-0.390625 -0.2187519 -0.609375 -0.5937519q-0.203125 -0.375 -0.203125 -0.875zm0.703125 -0.0625q0 0.578125 0.28125 0.890625q0.28125 0.296875 0.71875 0.296875q0.234375 0 0.453125 -0.09375q0.21875 -0.09375 0.40625 -0.28125q0.203125 -0.1875 0.328125 -0.421875q0.140625 -0.25 0.21875 -0.515625q0.125 -0.390625 0.125 -0.75q0 -0.5625 -0.28125 -0.875q-0.28125 -0.3125 -0.71875 -0.3125q-0.328125 0 -0.609375 0.171875q-0.265625 0.15625 -0.484375 0.46875q-0.21875 0.296875 -0.328125 0.703125q-0.109375 0.390625 -0.109375 0.71875zm3.6835938 0.21875l0.71875 -0.046875q0 0.3125 0.09375 0.53125q0.09375 0.203125 0.34375 0.34375q0.25 0.140625 0.578125 0.140625q0.46875 0 0.703125 -0.1875q0.234375 -0.1875 0.234375 -0.4375q0 -0.1875 -0.140625 -0.359375q-0.140625 -0.15625 -0.703125 -0.390625q-0.5625 -0.25 -0.71875 -0.34375q-0.25 -0.15625 -0.390625 -0.375q-0.125 -0.21875 -0.125 -0.5q0 -0.5 0.390625 -0.84375q0.390625 -0.359375 1.09375 -0.359375q0.78125 0 1.1875 0.375q0.40625 0.359375 0.421875 0.9375l-0.6875 0.046875q-0.015625 -0.375 -0.265625 -0.59375q-0.25 -0.21875 -0.71875 -0.21875q-0.359375 0 -0.5625 0.171875q-0.203125 0.171875 -0.203125 0.359375q0 0.203125 0.171875 0.34375q0.125 0.109375 0.609375 0.3125q0.8125 0.359375 1.015625 0.5625q0.34375 0.328125 0.34375 0.78125q0 0.3125 -0.1875 0.609375q-0.1875 0.2968769 -0.578125 0.4843769q-0.390625 0.171875 -0.921875 0.171875q-0.71875 0 -1.21875 -0.359375q-0.5 -0.3593769 -0.484375 -1.1562519zm5.28125 -1.90625q0.296875 -0.234375 0.59375 -0.359375q0.296875 -0.125 0.578125 -0.125q0.65625 0 1.078125 0.453125q0.4375 0.4375 0.4375 1.1875q0 0.96875 -0.640625 1.671875q-0.546875 0.5937519 -1.328125 0.5937519q-0.703125 0 -1.1875 -0.5156269q-0.46875 -0.53125 -0.46875 -1.484375q0 -0.875 0.296875 -1.796875q0.234375 -0.703125 0.578125 -1.15625q0.359375 -0.46875 0.734375 -0.671875q0.390625 -0.21875 0.890625 -0.21875q0.578125 0 0.953125 0.375q0.375 0.359375 0.421875 1.03125l-0.65625 0.0625q-0.0625 -0.46875 -0.265625 -0.671875q-0.203125 -0.203125 -0.515625 -0.203125q-0.3125 0 -0.640625 0.25q-0.3125 0.234375 -0.546875 0.71875q-0.21875 0.484375 -0.3125 0.859375zm-0.25 1.71875q0 0.484375 0.296875 0.8125q0.3125 0.328125 0.6875 0.328125q0.265625 0 0.5625 -0.203125q0.296875 -0.203125 0.5 -0.609375q0.21875 -0.40625 0.21875 -0.8125q0 -0.53125 -0.296875 -0.84375q-0.28125 -0.3125 -0.6875 -0.3125q-0.46875 0 -0.875 0.46875q-0.40625 0.453125 -0.40625 1.171875zm3.6523438 -0.265625q0 -0.734375 0.21875 -1.484375q0.21875 -0.75 0.484375 -1.1875q0.265625 -0.453125 0.546875 -0.703125q0.296875 -0.265625 0.5625 -0.375q0.28125 -0.125 0.609375 -0.125q0.65625 0 1.09375 0.484375q0.453125 0.484375 0.453125 1.40625q0 0.953125 -0.3125 1.890625q-0.359375 1.09375 -1.0 1.640625q-0.484375 0.4218769 -1.125 0.4218769q-0.640625 0 -1.09375 -0.5000019q-0.4375 -0.515625 -0.4375 -1.46875zm0.6875 0.171875q0 0.53125 0.171875 0.828125q0.25 0.40625 0.71875 0.40625q0.40625 0 0.734375 -0.375q0.484375 -0.515625 0.734375 -1.515625q0.25 -1.015625 0.25 -1.65625q0 -0.625 -0.25 -0.890625q-0.234375 -0.28125 -0.609375 -0.28125q-0.28125 0 -0.53125 0.15625q-0.25 0.140625 -0.46875 0.484375q-0.3125 0.5 -0.546875 1.484375q-0.203125 0.84375 -0.203125 1.359375zm3.7617188 -2.46875q0 -0.3125 0.15625 -0.703125q0.15625 -0.390625 0.515625 -0.671875q0.359375 -0.28125 0.84375 -0.28125q0.53125 0 0.875 0.34375q0.34375 0.34375 0.34375 0.875q0 0.59375 -0.390625 1.15625q-0.390625 0.5625 -1.078125 0.5625q-0.40625 0 -0.703125 -0.15625q-0.296875 -0.15625 -0.4375 -0.421875q-0.125 -0.265625 -0.125 -0.703125zm0.578125 -0.015625q0 0.359375 0.125 0.53125q0.1875 0.265625 0.5 0.265625q0.21875 0 0.4375 -0.140625q0.21875 -0.15625 0.359375 -0.453125q0.15625 -0.3125 0.15625 -0.625q0 -0.3125 -0.1875 -0.5q-0.1875 -0.203125 -0.453125 -0.203125q-0.25 0 -0.46875 0.171875q-0.21875 0.15625 -0.34375 0.453125q-0.125 0.28125 -0.125 0.5zm2.21875 4.187502l0.171875 -0.7968769l0.796875 0l-0.140625 0.6875019q-0.140625 0.640625 -0.421875 0.921875q-0.265625 0.296875 -0.65625 0.34375l0.078125 -0.3125q0.453125 -0.125 0.609375 -0.84375l-0.4375 0zm4.2734375 0l0.875 -4.156252l0.625 0l-0.1875 0.859375q0.328125 -0.484375 0.625 -0.71875q0.3125 -0.234375 0.640625 -0.234375q0.203125 0 0.515625 0.15625l-0.296875 0.65625q-0.171875 -0.125 -0.390625 -0.125q-0.375 0 -0.765625 0.421875q-0.390625 0.40625 -0.609375 1.46875l-0.359375 1.6718769l-0.671875 0zm2.7265625 -1.4218769l0.71875 -0.046875q0 0.3125 0.09375 0.53125q0.09375 0.203125 0.34375 0.34375q0.25 0.140625 0.578125 0.140625q0.46875 0 0.703125 -0.1875q0.234375 -0.1875 0.234375 -0.4375q0 -0.1875 -0.140625 -0.359375q-0.140625 -0.15625 -0.703125 -0.390625q-0.5625 -0.25 -0.71875 -0.34375q-0.25 -0.15625 -0.390625 -0.375q-0.125 -0.21875 -0.125 -0.5q0 -0.5 0.390625 -0.84375q0.390625 -0.359375 1.09375 -0.359375q0.78125 0 1.1875 0.375q0.40625 0.359375 0.421875 0.9375l-0.6875 0.046875q-0.015625 -0.375 -0.265625 -0.59375q-0.25 -0.21875 -0.71875 -0.21875q-0.359375 0 -0.5625 0.171875q-0.203125 0.171875 -0.203125 0.359375q0 0.203125 0.171875 0.34375q0.125 0.109375 0.609375 0.3125q0.8125 0.359375 1.015625 0.5625q0.34375 0.328125 0.34375 0.78125q0 0.3125 -0.1875 0.609375q-0.1875 0.2968769 -0.578125 0.4843769q-0.390625 0.171875 -0.921875 0.171875q-0.71875 0 -1.21875 -0.359375q-0.5 -0.3593769 -0.484375 -1.1562519zm4.9375 -3.5l0.171875 -0.8125l0.703125 0l-0.171875 0.8125l-0.703125 0zm-1.03125 4.921877l0.875 -4.156252l0.703125 0l-0.859375 4.156252l-0.71875 0zm1.8085938 0l0.875 -4.156252l0.640625 0l-0.15625 0.734375q0.421875 -0.4375 0.78125 -0.625q0.359375 -0.203125 0.734375 -0.203125q0.515625 0 0.796875 0.28125q0.28125 0.265625 0.28125 0.734375q0 0.21875 -0.09375 0.71875l-0.53125 2.515627l-0.703125 0l0.546875 -2.625002q0.078125 -0.390625 0.078125 -0.578125q0 -0.203125 -0.140625 -0.328125q-0.140625 -0.125 -0.40625 -0.125q-0.546875 0 -0.96875 0.390625q-0.421875 0.390625 -0.625 1.328125l-0.40625 1.9375019l-0.703125 0zm5.7929688 -3.328127q0.296875 -0.234375 0.59375 -0.359375q0.296875 -0.125 0.578125 -0.125q0.65625 0 1.078125 0.453125q0.4375 0.4375 0.4375 1.1875q0 0.96875 -0.640625 1.671875q-0.546875 0.5937519 -1.328125 0.5937519q-0.703125 0 -1.1875 -0.5156269q-0.46875 -0.53125 -0.46875 -1.484375q0 -0.875 0.296875 -1.796875q0.234375 -0.703125 0.578125 -1.15625q0.359375 -0.46875 0.734375 -0.671875q0.390625 -0.21875 0.890625 -0.21875q0.578125 0 0.953125 0.375q0.375 0.359375 0.421875 1.03125l-0.65625 0.0625q-0.0625 -0.46875 -0.265625 -0.671875q-0.203125 -0.203125 -0.515625 -0.203125q-0.3125 0 -0.640625 0.25q-0.3125 0.234375 -0.546875 0.71875q-0.21875 0.484375 -0.3125 0.859375zm-0.25 1.71875q0 0.484375 0.296875 0.8125q0.3125 0.328125 0.6875 0.328125q0.265625 0 0.5625 -0.203125q0.296875 -0.203125 0.5 -0.609375q0.21875 -0.40625 0.21875 -0.8125q0 -0.53125 -0.296875 -0.84375q-0.28125 -0.3125 -0.6875 -0.3125q-0.46875 0 -0.875 0.46875q-0.40625 0.453125 -0.40625 1.171875zm3.6523438 -0.265625q0 -0.734375 0.21875 -1.484375q0.21875 -0.75 0.484375 -1.1875q0.265625 -0.453125 0.546875 -0.703125q0.296875 -0.265625 0.5625 -0.375q0.28125 -0.125 0.609375 -0.125q0.65625 0 1.09375 0.484375q0.453125 0.484375 0.453125 1.40625q0 0.953125 -0.3125 1.890625q-0.359375 1.09375 -1.0 1.640625q-0.484375 0.4218769 -1.125 0.4218769q-0.640625 0 -1.09375 -0.5000019q-0.4375 -0.515625 -0.4375 -1.46875zm0.6875 0.171875q0 0.53125 0.171875 0.828125q0.25 0.40625 0.71875 0.40625q0.40625 0 0.734375 -0.375q0.484375 -0.515625 0.734375 -1.515625q0.25 -1.015625 0.25 -1.65625q0 -0.625 -0.25 -0.890625q-0.234375 -0.28125 -0.609375 -0.28125q-0.28125 0 -0.53125 0.15625q-0.25 0.140625 -0.46875 0.484375q-0.3125 0.5 -0.546875 1.484375q-0.203125 0.84375 -0.203125 1.359375zm3.7617188 -2.46875q0 -0.3125 0.15625 -0.703125q0.15625 -0.390625 0.515625 -0.671875q0.359375 -0.28125 0.84375 -0.28125q0.53125 0 0.875 0.34375q0.34375 0.34375 0.34375 0.875q0 0.59375 -0.390625 1.15625q-0.390625 0.5625 -1.078125 0.5625q-0.40625 0 -0.703125 -0.15625q-0.296875 -0.15625 -0.4375 -0.421875q-0.125 -0.265625 -0.125 -0.703125zm0.578125 -0.015625q0 0.359375 0.125 0.53125q0.1875 0.265625 0.5 0.265625q0.21875 0 0.4375 -0.140625q0.21875 -0.15625 0.359375 -0.453125q0.15625 -0.3125 0.15625 -0.625q0 -0.3125 -0.1875 -0.5q-0.1875 -0.203125 -0.453125 -0.203125q-0.25 0 -0.46875 0.171875q-0.21875 0.15625 -0.34375 0.453125q-0.125 0.28125 -0.125 0.5zm3.375 -1.640625q0.609375 1.34375 0.609375 2.765625q0 0.9375 -0.25 1.75q-0.25 0.8125 -0.75 1.6250019q-0.34375 0.53125 -1.078125 1.375l-0.546875 0q0.453125 -0.5 0.953125 -1.390625q0.515625 -0.8750019 0.75 -1.7343769q0.234375 -0.859375 0.234375 -1.71875q0 -1.296875 -0.453125 -2.671875l0.53125 0z" fill-rule="nonzero"/><path fill="#000000" fill-opacity="0.0" d="m283.15485 103.855644l82.74017 0l0 24.377953l-82.74017 0z" fill-rule="evenodd"/><path fill="#000000" d="m293.45172 132.22314q-0.625 -1.34375 -0.625 -2.765625q0 -0.953125 0.25 -1.765625q0.25 -0.8125 0.765625 -1.609375q0.328125 -0.53125 1.0625 -1.375l0.5625 0q-0.46875 0.484375 -0.984375 1.375q-0.5 0.890625 -0.734375 1.75q-0.21875 0.84375 -0.21875 1.71875q0 1.28125 0.4375 2.671875l-0.515625 0zm1.6328125 -1.6875l0.875 -4.15625l0.625 0l-0.1875 0.859375q0.328125 -0.484375 0.625 -0.71875q0.3125 -0.234375 0.640625 -0.234375q0.203125 0 0.515625 0.15625l-0.296875 0.65625q-0.171875 -0.125 -0.390625 -0.125q-0.375 0 -0.765625 0.421875q-0.390625 0.40625 -0.609375 1.46875l-0.359375 1.671875l-0.671875 0zm2.3945312 0l0.171875 -0.796875l0.796875 0l-0.140625 0.6875q-0.140625 0.640625 -0.421875 0.921875q-0.265625 0.296875 -0.65625 0.34375l0.078125 -0.3125q0.453125 -0.125 0.609375 -0.84375l-0.4375 0zm4.5703125 -1.875q0 -0.734375 0.21875 -1.484375q0.21875 -0.75 0.484375 -1.1875q0.265625 -0.453125 0.546875 -0.703125q0.296875 -0.265625 0.5625 -0.375q0.28125 -0.125 0.609375 -0.125q0.65625 0 1.09375 0.484375q0.453125 0.484375 0.453125 1.40625q0 0.953125 -0.3125 1.890625q-0.359375 1.09375 -1.0 1.640625q-0.484375 0.421875 -1.125 0.421875q-0.640625 0 -1.09375 -0.5q-0.4375 -0.515625 -0.4375 -1.46875zm0.6875 0.171875q0 0.53125 0.171875 0.828125q0.25 0.40625 0.71875 0.40625q0.40625 0 0.734375 -0.375q0.484375 -0.515625 0.734375 -1.515625q0.25 -1.015625 0.25 -1.65625q0 -0.625 -0.25 -0.890625q-0.234375 -0.28125 -0.609375 -0.28125q-0.28125 0 -0.53125 0.15625q-0.25 0.140625 -0.46875 0.484375q-0.3125 0.5 -0.546875 1.484375q-0.203125 0.84375 -0.203125 1.359375zm4.7929688 -4.125q0.609375 1.34375 0.609375 2.765625q0 0.9375 -0.25 1.75q-0.25 0.8125 -0.75 1.625q-0.34375 0.53125 -1.078125 1.375l-0.546875 0q0.453125 -0.5 0.953125 -1.390625q0.515625 -0.875 0.75 -1.734375q0.234375 -0.859375 0.234375 -1.71875q0 -1.296875 -0.453125 -2.671875l0.53125 0z" fill-rule="nonzero"/><path fill="#000000" fill-opacity="0.0" d="m33.07349 103.855644l82.74016 0l0 24.377953l-82.74016 0z" fill-rule="evenodd"/><path fill="#000000" d="m43.370365 132.22314q-0.625 -1.34375 -0.625 -2.765625q0 -0.953125 0.25 -1.765625q0.25 -0.8125 0.765625 -1.609375q0.328125 -0.53125 1.0625 -1.375l0.5625 0q-0.46875 0.484375 -0.984375 1.375q-0.5 0.890625 -0.734375 1.75q-0.21875 0.84375 -0.21875 1.71875q0 1.28125 0.4375 2.671875l-0.515625 0zm1.7421875 -3.40625l0.140625 -0.703125l2.15625 0l-0.140625 0.703125l-2.15625 0zm2.5546875 1.71875l0.875 -4.15625l0.625 0l-0.1875 0.859375q0.328125 -0.484375 0.625 -0.71875q0.3125 -0.234375 0.640625 -0.234375q0.203125 0 0.515625 0.15625l-0.296875 0.65625q-0.171875 -0.125 -0.390625 -0.125q-0.375 0 -0.765625 0.421875q-0.390625 0.40625 -0.609375 1.46875l-0.359375 1.671875l-0.671875 0zm2.3945312 0l0.171875 -0.796875l0.796875 0l-0.140625 0.6875q-0.140625 0.640625 -0.421875 0.921875q-0.265625 0.296875 -0.65625 0.34375l0.078125 -0.3125q0.453125 -0.125 0.609375 -0.84375l-0.4375 0zm4.5703125 -1.875q0 -0.734375 0.21875 -1.484375q0.21875 -0.75 0.484375 -1.1875q0.265625 -0.453125 0.546875 -0.703125q0.296875 -0.265625 0.5625 -0.375q0.28125 -0.125 0.609375 -0.125q0.65625 0 1.09375 0.484375q0.453125 0.484375 0.453125 1.40625q0 0.953125 -0.3125 1.890625q-0.359375 1.09375 -1.0 1.640625q-0.484375 0.421875 -1.125 0.421875q-0.640625 0 -1.09375 -0.5q-0.4375 -0.515625 -0.4375 -1.46875zm0.6875 0.171875q0 0.53125 0.171875 0.828125q0.25 0.40625 0.71875 0.40625q0.40625 0 0.734375 -0.375q0.484375 -0.515625 0.734375 -1.515625q0.25 -1.015625 0.25 -1.65625q0 -0.625 -0.25 -0.890625q-0.234375 -0.28125 -0.609375 -0.28125q-0.28125 0 -0.53125 0.15625q-0.25 0.140625 -0.46875 0.484375q-0.3125 0.5 -0.546875 1.484375q-0.203125 0.84375 -0.203125 1.359375zm4.7929688 -4.125q0.609375 1.34375 0.609375 2.765625q0 0.9375 -0.25 1.75q-0.25 0.8125 -0.75 1.625q-0.34375 0.53125 -1.078125 1.375l-0.546875 0q0.453125 -0.5 0.953125 -1.390625q0.515625 -0.875 0.75 -1.734375q0.234375 -0.859375 0.234375 -1.71875q0 -1.296875 -0.453125 -2.671875l0.53125 0z" fill-rule="nonzero"/></g></svg>